<?xml version="1.0" standalone="no"?>
<!DOCTYPE svg PUBLIC "-//W3C//DTD SVG 20010904//EN"
 "http://www.w3.org/TR/2001/REC-SVG-20010904/DTD/svg10.dtd">
<svg version="1.0" xmlns="http://www.w3.org/2000/svg"
 width="512.000000pt" height="512.000000pt" viewBox="0 0 512.000000 512.000000"
 preserveAspectRatio="xMidYMid meet">

<g transform="translate(0.000000,512.000000) scale(0.100000,-0.100000)"
fill="#000000" stroke="none">
<path d="M2485 5101 c-47 -22 -89 -64 -104 -104 -8 -19 -11 -378 -11 -1138 l0
-1109 -1109 0 c-760 0 -1119 -3 -1138 -11 -64 -24 -123 -109 -123 -179 0 -70
59 -155 123 -179 19 -8 378 -11 1138 -11 l1109 0 0 -1109 c0 -760 3 -1119 11
-1138 24 -64 109 -123 179 -123 70 0 155 59 179 123 8 19 11 378 11 1138 l0
1109 1109 0 c760 0 1119 3 1138 11 64 24 123 109 123 179 0 70 -59 155 -123
179 -19 8 -378 11 -1138 11 l-1109 0 0 1109 c0 760 -3 1119 -11 1138 -24 64
-109 123 -179 123 -19 0 -53 -9 -75 -19z"/>
</g>
</svg>
